<?xml version="1.0" encoding="UTF-8"?><svg id="bouteille_spiriteux" xmlns="http://www.w3.org/2000/svg" viewBox="0 0 100 100"><defs><style>.cls-1{fill:#f2595b;}.cls-2{fill:#5b00be;}.cls-3{fill:#690d50;}.cls-4{fill:#2e95c0;}</style></defs><circle class="cls-3" cx="50" cy="50" r="35"/><path class="cls-4" d="M62.19,64.89c-2.52,10.09-5.05,12.61-5.89,12.61h-12.61c-.84,0-3.36-2.52-5.89-12.61-2.52-10.09,1.68-11.77,5.89-15.14,2.41-1.93,3.16-3.83,3.36-5.1v-15.08h5.89v15.08c.2,1.27,.95,3.17,3.36,5.1,4.2,3.36,8.41,5.05,5.89,15.14Z"/><path class="cls-2" d="M53.09,29.57h-6.18c-.94-.84-.87-1.35-.87-1.35v-5.72h7.93v5.72s.07,.51-.87,1.35Z"/><path class="cls-1" d="M58.88,61.51l-2.47,8.66c-.1,.36-.43,.61-.81,.61h-11.2c-.38,0-.71-.25-.81-.61l-2.47-8.66c-.19-.66,0-1.37,.5-1.84,1.41-1.31,3.26-2.1,4.86-2.58,2.31-.69,4.74-.69,7.05,0,1.6,.48,3.45,1.27,4.86,2.58,.5,.46,.68,1.18,.5,1.84Z"/></svg>