<?xml version="1.0" encoding="UTF-8"?><svg id="bouteille_vin" xmlns="http://www.w3.org/2000/svg" viewBox="0 0 100 100"><defs><style>.cls-1{fill:none;stroke:#fff;stroke-miterlimit:10;stroke-width:.75px;}.cls-2{fill:#690d50;}</style></defs><circle class="cls-2" cx="50" cy="50" r="35"/><g><path class="cls-1" d="M56.98,43.12v31.56c0,.94-.54,1.78-1.38,2.21-.13,.07-.27,.14-.41,.21-.56,.26-1.17,.41-1.8,.41h-6.51c-.63,0-1.26-.16-1.83-.43-.25-.12-.51-.25-.76-.39-.79-.42-1.27-1.26-1.27-2.16v-31.41c0-.72,.19-1.43,.55-2.05l1.24-2.15,1.9-3.28,.2-.34c.15-.25,.22-.53,.22-.82v-9.51h-.41v-1.64h.41v-.82h5.75v.82h.41v1.64h-.41v9.51c0,.3,.07,.57,.22,.82l.2,.34,1.9,3.28,1.24,2.15c.36,.62,.55,1.33,.55,2.05Z"/><path class="cls-1" d="M53.29,35.63h-6.58l.2-.34c.15-.25,.22-.53,.22-.82v-.48h5.75v.48c0,.3,.07,.57,.22,.82l.2,.34Z"/><rect class="cls-1" x="44.66" y="49.59" width="10.67" height="14.78" rx="1.39" ry="1.39"/></g></svg>