<?xml version="1.0" encoding="UTF-8"?><svg id="bouteille_vin" xmlns="http://www.w3.org/2000/svg" viewBox="0 0 100 100"><defs><style>.cls-1{fill:#0099c1;}.cls-2{fill:#5b00be;}.cls-3{fill:#690d50;}.cls-4{fill:#1bbc9b;}.cls-5{fill:#9b2646;}</style></defs><circle class="cls-4" cx="50" cy="50" r="35"/><polygon class="cls-2" points="53.28 23.32 53.28 24.96 52.87 24.96 52.87 33.99 47.13 33.99 47.13 24.96 46.72 24.96 46.72 23.32 47.13 23.32 47.13 22.5 52.87 22.5 52.87 23.32 53.28 23.32"/><path class="cls-3" d="M56.98,43.12v31.56c0,.93-.54,1.78-1.38,2.2-.13,.07-.27,.14-.41,.21-.56,.26-1.18,.41-1.8,.41h-6.51c-.63,0-1.26-.16-1.83-.43-.25-.12-.51-.25-.76-.38-.78-.42-1.27-1.26-1.27-2.16v-31.41c0-.72,.19-1.43,.55-2.05l1.24-2.15,1.9-3.29,.2-.34c.14-.25,.22-.53,.22-.82v-.48h5.74v.48c0,.29,.08,.57,.22,.82l.2,.34,1.9,3.29,1.24,2.15c.36,.62,.55,1.33,.55,2.05Z"/><path class="cls-5" d="M53.29,35.63h-6.58l.2-.34c.14-.25,.22-.53,.22-.82v-.48h5.74v.48c0,.29,.08,.57,.22,.82l.2,.34Z"/><rect class="cls-1" x="44.66" y="49.59" width="10.67" height="14.78" rx="1.39" ry="1.39"/></svg>