<?xml version="1.0" encoding="UTF-8"?><svg id="panier__achat_" xmlns="http://www.w3.org/2000/svg" viewBox="0 0 100 100"><defs><style>.cls-1,.cls-2,.cls-3{fill:none;stroke:#000;}.cls-1,.cls-3{stroke-miterlimit:10;}.cls-2{stroke-linecap:round;stroke-linejoin:round;}.cls-2,.cls-3{stroke-width:.75px;}</style></defs><circle class="cls-1" cx="50" cy="50" r="35"/><g><path class="cls-3" d="M56.8,62.72c-.21,.74-.78,1.31-1.51,1.52-.74,.22-1.52,.05-2.1-.46l-3.04-2.67-.15,.26,6.42,11.12,2.24-4.11,4.68,.12-5.48-9.49-1.06,3.71Z"/><path class="cls-3" d="M50,60.99l-3.19,2.8c-.58,.51-1.36,.68-2.1,.46-.73-.21-1.3-.78-1.51-1.52l-1.06-3.71-5.48,9.49,4.68-.12,2.24,4.11,6.57-11.38-.15-.13Z"/><g><circle class="cls-2" cx="50" cy="45.92" r="12.25" transform="translate(-6.71 8.6) rotate(-9.22)"/><path class="cls-2" d="M31.44,48.92c.11,.76,.59,1.4,1.29,1.71l3.86,1.74-1.22,4.07c-.21,.73-.05,1.51,.45,2.09,.51,.58,1.26,.86,2.02,.74l4.19-.63,1.17,4.07c.21,.74,.78,1.31,1.51,1.52,.74,.22,1.52,.05,2.1-.46l3.19-2.8,3.19,2.8c.58,.51,1.36,.68,2.1,.46,.73-.21,1.3-.78,1.51-1.52l1.17-4.07,4.19,.63c.76,.12,1.51-.17,2.02-.74,.5-.58,.66-1.36,.45-2.09l-1.22-4.07,3.86-1.74c.7-.31,1.18-.96,1.29-1.71,.12-.76-.17-1.51-.76-2.01l-3.21-2.75,2.3-3.56c.42-.64,.48-1.44,.17-2.14-.32-.7-.96-1.17-1.72-1.27l-4.19-.58v-4.25c.02-.77-.37-1.46-1-1.88-.65-.41-1.45-.47-2.14-.15l-3.86,1.78-2.27-3.58c-.41-.65-1.11-1.04-1.88-1.04s-1.46,.39-1.88,1.04l-2.27,3.58-3.86-1.78c-.68-.32-1.49-.26-2.14,.15-.64,.41-1.03,1.11-1.02,1.88v4.25l-4.18,.58c-.77,.11-1.4,.58-1.72,1.27-.32,.7-.26,1.5,.17,2.14l2.3,3.56-3.21,2.75c-.59,.5-.87,1.25-.76,2.01Z"/></g></g></svg>