<?xml version="1.0" encoding="UTF-8"?><svg id="panier__achat_" xmlns="http://www.w3.org/2000/svg" viewBox="0 0 100 100"><defs><style>.cls-1{fill:#5b00be;}.cls-2{fill:#690d50;}.cls-3{fill:#1bbc9b;}.cls-4{fill:#9b2646;}</style></defs><circle class="cls-3" cx="50" cy="50" r="35"/><path class="cls-4" d="M52.53,34.93l-.68,10.79-.05,.69-.12,1.94c-.04,.58-.51,1.05-1.07,1.05h-1.21c-.56,0-1.03-.47-1.07-1.05l-.12-1.94-.05-.69-.68-10.79c-.09-1.3,.89-2.4,2.14-2.4h.77c1.25,0,2.23,1.1,2.14,2.4Z"/><path class="cls-1" d="M31.35,53.11l-.02,.02c-.12,5.29,1.76,10.12,4.89,13.71,.36,.41,.88,.63,1.43,.63h24.69c.54,0,1.07-.22,1.43-.63,3.13-3.6,5.01-8.42,4.89-13.71l-.02-.02H31.35Z"/><path class="cls-2" d="M72.5,49.63v.27c0,1.77-1.45,3.22-3.22,3.22H30.72c-1.77,0-3.22-1.45-3.22-3.22v-.27c0-1.77,1.45-3.22,3.22-3.22h17.48l.12,1.94c.04,.58,.51,1.05,1.07,1.05h1.21c.56,0,1.03-.47,1.07-1.05l.12-1.94h17.48c1.77,0,3.22,1.45,3.22,3.22Z"/></svg>