<?xml version="1.0" encoding="UTF-8"?><svg id="raisin" xmlns="http://www.w3.org/2000/svg" viewBox="0 0 100 100"><defs><style>.cls-1{fill:none;stroke:#fff;stroke-miterlimit:10;}.cls-2{fill:#690d50;}</style></defs><circle class="cls-2" cx="50" cy="50" r="35"/><g><path class="cls-1" d="M53,71.33c0,2.03-1.64,3.67-3.67,3.67s-3.67-1.64-3.67-3.67c0-.67,.18-1.3,.5-1.84,.92-.28,1.71-.89,2.21-1.69,.31-.09,.62-.13,.96-.13,.07,0,.14,0,.21,0,.62,1.07,1.74,1.83,3.04,1.97h0c.26,.5,.41,1.07,.41,1.68Z"/><path class="cls-1" d="M49,65.67c0,.78-.22,1.52-.62,2.13-.5,.8-1.28,1.41-2.21,1.69-.37,.12-.76,.17-1.17,.17-2.21,0-4-1.79-4-4,0-.75,.21-1.45,.57-2.04,1.22-.17,2.27-.9,2.87-1.92,.18-.02,.38-.04,.57-.04,.43,0,.82,.07,1.21,.19,.43,.43,.97,.77,1.57,.95h0c.75,.72,1.21,1.74,1.21,2.86Z"/><path class="cls-1" d="M57,65.67c0,2.21-1.79,4-4,4-.14,0-.27,0-.41-.02h0c-1.3-.14-2.42-.9-3.04-1.97-.34-.58-.54-1.28-.54-2.01,0-1.12,.46-2.13,1.21-2.86h0c.61-.18,1.14-.52,1.58-.95,.38-.12,.78-.19,1.21-.19,.19,0,.38,.02,.57,.04,.6,1.02,1.64,1.74,2.87,1.92,.36,.59,.57,1.29,.57,2.04Z"/><path class="cls-1" d="M61,59.67c0,2.21-1.79,4-4,4-.19,0-.38-.02-.57-.04-1.23-.17-2.27-.9-2.87-1.92-.36-.59-.57-1.29-.57-2.04,0-2.02,1.5-3.69,3.45-3.96,.83,.8,1.97,1.29,3.22,1.29,.1,0,.2,0,.29-.02,.65,.7,1.04,1.64,1.04,2.68Z"/><path class="cls-1" d="M45,59.67c0,.75-.21,1.45-.57,2.04-.6,1.02-1.64,1.74-2.87,1.92-.18,.03-.37,.04-.57,.04-2.21,0-4-1.79-4-4,0-1.04,.39-1.98,1.04-2.68,.09,.02,.19,.02,.29,.02,1.25,0,2.38-.49,3.22-1.29,1.95,.27,3.45,1.93,3.45,3.96Z"/><path class="cls-1" d="M53,59c0,1.12-.46,2.13-1.21,2.86-.43,.43-.97,.77-1.58,.95h0c-.38,.13-.78,.19-1.21,.19s-.82-.07-1.21-.19h0c-.61-.18-1.14-.52-1.57-.95-.75-.72-1.21-1.74-1.21-2.86s.45-2.1,1.17-2.82c.76-.19,1.43-.57,1.99-1.09,.27-.06,.55-.09,.84-.09h.08c.75,.74,1.76,1.22,2.87,1.32,.66,.7,1.05,1.64,1.05,2.68Z"/><path class="cls-1" d="M60.33,44.33c0,1.66-1.01,3.07-2.44,3.68-.02,0-.03,0-.04,.02-.47,.19-.98,.3-1.52,.3-.29,0-.57-.03-.84-.09-.56-.53-1.23-.9-1.99-1.09-.35-.35-.63-.76-.83-1.23,.22-.48,.33-1.02,.33-1.59s-.12-1.11-.33-1.59c.61-1.42,2.02-2.41,3.67-2.41,2.21,0,4,1.79,4,4Z"/><path class="cls-1" d="M45,44.33c0,.57,.12,1.11,.33,1.59-.17,.41-.42,.77-.72,1.09-1.12,.09-2.12,.58-2.87,1.32h-.07c-.54,0-1.05-.11-1.52-.3,0,0-.03,0-.04-.02-1.43-.61-2.44-2.02-2.44-3.68,0-2.21,1.79-4,4-4,1.64,0,3.06,.99,3.67,2.41-.22,.48-.33,1.03-.33,1.59Z"/><path class="cls-1" d="M53,44.33c0,.57-.12,1.11-.33,1.59-.18,.41-.42,.77-.72,1.09-1.12,.09-2.13,.58-2.87,1.32h-.08c-.29,0-.57-.03-.84-.09-.56-.53-1.23-.9-1.99-1.09-.35-.35-.63-.76-.83-1.23-.22-.48-.33-1.02-.33-1.59s.12-1.11,.33-1.59c.61-1.42,2.02-2.41,3.67-2.41s3.06,.99,3.67,2.41c.22,.48,.33,1.03,.33,1.59Z"/><path class="cls-1" d="M64.33,52.33c0,2.48-1.93,4.51-4.37,4.65-.09,.02-.19,.02-.29,.02-1.25,0-2.38-.49-3.22-1.29-.27-.26-.51-.54-.71-.86,.78-.83,1.26-1.95,1.26-3.18,0-.92-.28-1.79-.74-2.52,.44-.48,.98-.86,1.59-1.12,0,0,.03,0,.04-.02,.54-.23,1.14-.35,1.77-.35,2.58,0,4.67,2.08,4.67,4.67Z"/><path class="cls-1" d="M57,51.67c0,1.23-.48,2.35-1.26,3.18-.85,.91-2.06,1.48-3.41,1.48-.13,0-.26,0-.38-.02-1.12-.09-2.13-.58-2.87-1.32-.15-.14-.29-.3-.41-.46,.62-.79,1-1.79,1-2.88s-.37-2.08-1-2.88c.12-.17,.26-.33,.41-.46,.75-.74,1.76-1.22,2.87-1.32,.13,0,.25-.02,.38-.02,.4,0,.79,.05,1.17,.15,.76,.19,1.43,.57,1.99,1.09,.29,.26,.56,.57,.77,.91,.47,.72,.74,1.59,.74,2.52Z"/><path class="cls-1" d="M41.99,55.23c-.13,.17-.28,.33-.44,.48-.83,.8-1.97,1.29-3.22,1.29-.1,0-.2,0-.29-.02-2.44-.14-4.37-2.17-4.37-4.65s2.09-4.67,4.67-4.67c.63,0,1.23,.12,1.78,.35,.02,0,.03,0,.04,.02,.44,.18,.84,.43,1.19,.74-.63,.79-1.01,1.8-1.01,2.89,0,1.43,.64,2.71,1.66,3.56Z"/><path class="cls-1" d="M49.67,51.67c0,1.08-.37,2.08-1,2.88-.15,.2-.33,.38-.51,.55-.56,.53-1.23,.9-1.99,1.09-.37,.1-.77,.15-1.17,.15-1.15,0-2.2-.42-3.01-1.11-1.02-.85-1.66-2.13-1.66-3.56,0-1.09,.37-2.1,1.01-2.89,.12-.16,.26-.31,.4-.44,.75-.74,1.76-1.22,2.87-1.32,.13,0,.25-.02,.38-.02,.4,0,.79,.05,1.17,.15,.76,.19,1.43,.57,1.99,1.09,.18,.16,.36,.35,.51,.55,.62,.79,1,1.79,1,2.88Z"/><path class="cls-1" d="M48.28,33.78c.11,.32,.23,.67,.33,1,.62,2.01,.91,3.95,.91,5.6-.17-.03-.34-.04-.52-.04-.3,0-.59,.03-.87,.1-.11-1.34-.38-2.81-.85-4.32-.98-3.15-2.52-5.72-4.06-7.02,.28-.7,.69-1.2,1.21-1.44,1.19,.96,2.4,2.69,3.36,4.89,1.35-.33,3.3-.39,5.47-.09,.07,0,.14,.02,.22,.03,.02,.39,.05,.76,.09,1.1-2.12-.27-4.01-.17-5.28,.19Z"/><path class="cls-1" d="M62.17,34.75c.48,.6,.87,1.56,.77,3.06,0,0-1.33,1.07-4.19,0-.11-.03-.22-.08-.33-.13,.05,.12,.1,.23,.14,.35,.29,.81,.43,1.62,.43,1.62,0,0-4.62,.23-5.43-6.08-.04-.34-.07-.71-.09-1.1-.02-.29-.03-.59-.03-.91,0-6.67,4.89-6.58,4.89-6.58,0,.48-.03,.92-.09,1.31-.06,.35-.13,.67-.22,.93,.29-.12,.56-.21,.81-.29,2.56-.8,3.75,.16,3.75,.16,.08,1.19-.15,2.03-.48,2.63,3.62,.73,4.23,2.59,4.23,2.59-1.47,2.44-3.29,2.54-4.16,2.42Z"/></g></svg>