<?xml version="1.0" encoding="UTF-8"?><svg id="panier__achat_" xmlns="http://www.w3.org/2000/svg" viewBox="0 0 100 100"><defs><style>.cls-1,.cls-2,.cls-3,.cls-4{fill:none;stroke:#000;stroke-miterlimit:10;}.cls-2,.cls-4{stroke-linecap:round;}.cls-3,.cls-4{stroke-width:.75px;}</style></defs><circle class="cls-1" cx="49" cy="51" r="35"/><path class="cls-2" d="M32.2,25.59s4.34,8.25,9.49,14.99-6.43,6.11-6.43,6.11"/><path class="cls-2" d="M29.78,40.78s-3.23,3.65,.16,5.7c.79,.48,1.78,.61,2.61,.21,.16-.08,.34-.16,.45-.3,1.5-1.88,4.6-1.78,4.6-1.78"/><ellipse cx="31.39" cy="39.22" rx=".64" ry=".62"/><g><path class="cls-4" d="M62.73,83.2l-2.6-8.08c-6.83,1.1-13.84-3.49-16.26-11-1.3-4.05-1.02-8.2,.48-11.64l19.09-6.15c3.24,1.92,5.88,5.12,7.19,9.17,2.42,7.52-.6,15.33-6.79,18.43l2.42,7.52-3.53,1.75Z"/><path class="cls-3" d="M47.07,61.22c.01,.45,.04,.89,.11,1.35,.89,5.89,6.34,9.96,12.17,9.07,5.83-.88,9.83-6.38,8.94-12.27-.07-.45-.17-.89-.29-1.32,0,0-7.94,.17-11.81,2.63-1.92,1.22-9.13,.54-9.13,.54Z"/></g></svg>