<?xml version="1.0" encoding="UTF-8"?><svg id="panier__achat_" xmlns="http://www.w3.org/2000/svg" viewBox="0 0 100 100"><defs><style>.cls-1{stroke-miterlimit:10;}.cls-1,.cls-2{fill:none;stroke:#000;}.cls-2{stroke-linecap:round;stroke-linejoin:bevel;}</style></defs><circle class="cls-1" cx="50" cy="50" r="35"/><g><path class="cls-1" d="M67.08,34.25c0,1.03-.42,1.97-1.11,2.64-.67,.68-1.61,1.11-2.64,1.11h-26.66c-2.06,0-3.75-1.69-3.75-3.75,0-1.03,.42-1.97,1.11-2.64,.68-.68,1.61-1.11,2.64-1.11h26.66c2.06,0,3.75,1.69,3.75,3.75Z"/><g><path class="cls-2" d="M49.67,75.5v-4.59c0-.05,.03-.1,.09-.11,.86-.14,7.73-1.36,.25-2.59-7.97-1.31,0-2.51,0-2.51,0,0,7.97-.87,0-2.18-7.97-1.31,0-2.51,0-2.51,0,0,7.97-.87,0-2.18-7.97-1.31,0-2.51,0-2.51,0,0,7.97-.87,0-2.18-7.97-1.31,0-2.51,0-2.51,0,0,7.97-.87,0-2.18-7.28-1.19-1.25-2.3-.16-2.48,.1-.02,.16-.1,.16-.2v-3.15"/><rect class="cls-1" x="47.66" y="38" width="4.69" height="5.62"/></g></g></svg>