<?xml version="1.0" encoding="UTF-8"?><svg id="tonneau" xmlns="http://www.w3.org/2000/svg" viewBox="0 0 100 100"><defs><style>.cls-1{fill:none;stroke-width:.75px;}.cls-1,.cls-2,.cls-3,.cls-4{stroke-miterlimit:10;}.cls-1,.cls-2,.cls-4{stroke:#5b00be;}.cls-2{fill:#5b00be;}.cls-3{fill:#00c47e;stroke:#3d3a6b;}.cls-5{fill:#690d50;}.cls-4{fill:#1bbc9b;}</style></defs><circle class="cls-5" cx="50" cy="50" r="35"/><path class="cls-2" d="M57.86,65.11l2.21,4.42c.14,.29,.38,.47,.64,.47h4.3c.63,0,1-.95,.64-1.63l-3.26-6.26"/><path class="cls-2" d="M37.63,62.1l-3.26,6.26c-.36,.68,0,1.63,.64,1.63h4.3c.26,0,.5-.18,.64-.47l2.21-4.42"/><circle class="cls-3" cx="50" cy="48.43" r="18.43"/><circle class="cls-4" cx="50" cy="48.43" r="14.35"/><line class="cls-1" x1="38.52" y1="39.79" x2="61.48" y2="39.79"/><line class="cls-1" x1="36.09" y1="45.5" x2="63.91" y2="45.5"/><line class="cls-1" x1="35.74" y1="51.2" x2="64.26" y2="51.2"/><line class="cls-1" x1="38.52" y1="56.9" x2="61.48" y2="56.9"/><circle class="cls-2" cx="50" cy="56.43" r="1.74"/></svg>