<?xml version="1.0" encoding="UTF-8"?><svg id="panier__achat_" xmlns="http://www.w3.org/2000/svg" viewBox="0 0 100 100"><defs><style>.cls-1,.cls-2,.cls-3{fill:none;stroke:#000;stroke-miterlimit:10;}.cls-2,.cls-3{stroke-width:.75px;}.cls-3{stroke-linecap:round;}</style></defs><circle class="cls-1" cx="50" cy="50" r="35"/><g><line class="cls-3" x1="36.56" y1="70" x2="36.56" y2="68.58"/><line class="cls-3" x1="63.44" y1="70" x2="36.56" y2="70"/><line class="cls-3" x1="63.44" y1="68.58" x2="63.44" y2="70"/><path class="cls-3" d="M36.56,68.58s10.25-2.86,11.12-5.48c.69-2.07-.69-4.83-4.14-5.52-4.06-.81-19.31-6.9-4.14-27.59h21.2c15.17,20.69-.08,26.77-4.14,27.59-3.45,.69-4.83,3.45-4.14,5.52,.87,2.62,11.12,5.48,11.12,5.48"/><path class="cls-2" d="M36.33,43.31c-.07,.45-.12,.91-.12,1.38,0,6.09,6.18,11.03,13.79,11.03s13.79-4.94,13.79-11.03c0-.47-.05-.93-.12-1.38h-27.35Z"/></g></svg>