<?xml version="1.0" encoding="UTF-8"?><svg id="verre_à_vin" xmlns="http://www.w3.org/2000/svg" viewBox="0 0 100 100"><defs><style>.cls-1{fill:#5b00be;}.cls-2{fill:#690d50;}.cls-3{fill:#1bbc9b;}</style></defs><circle class="cls-3" cx="50" cy="50" r="35"/><path class="cls-1" d="M59.1,71.44v1.06h-18.2v-1.06s6.32-1.96,7.41-3.84v-17.22c-5.93-.91-10.49-6.56-10.49-13.4,0-3.69,1.33-7.04,3.48-9.48h17.39c2.16,2.44,3.49,5.79,3.49,9.48,0,6.84-4.56,12.49-10.49,13.4v17.22c1.09,1.88,7.41,3.84,7.41,3.84Z"/><path class="cls-2" d="M41.08,37.06c-.05,.38-.08,.77-.08,1.17,0,5.17,4.03,9.36,9,9.36s9-4.19,9-9.36c0-.4-.03-.79-.08-1.17h-17.84Z"/></svg>